<svg id="Layer_1" data-name="Layer 1" xmlns="http://www.w3.org/2000/svg" viewBox="0 0 301.46 84.89"><defs><style>.cls-1{fill:#003e7e;}.cls-2{fill:#ffc425;}.cls-3{fill:none;}</style></defs><title>logo_fr</title><polyline class="cls-1" points="74.25 40.53 78.31 40.53 78.31 52.55 83.28 52.55 83.28 55.61 74.25 55.61 74.25 40.53"/><path class="cls-1" d="M340.37,317.62c0,.91.07,1.82.13,2.49H337c0-.52-.13-1-.13-1.56-1.12,1.25-2,1.82-3.37,1.82a3.34,3.34,0,0,1-3.41-3.59c0-2.51,1.88-3.85,5.79-3.85h1v-.35c0-.71-.58-1.53-2.12-1.53a6.41,6.41,0,0,0-3.24,1.06l-.13-2.79a11.92,11.92,0,0,1,4.21-.73c4,0,4.73,1.86,4.73,4.17Zm-3.46-3h-.45c-1.73,0-2.87.54-2.87,1.86a1.21,1.21,0,0,0,1.34,1.38c1.79,0,2-1.81,2-2.87v-.37" transform="translate(-245.75 -264.49)"/><path class="cls-1" d="M352.77,318.24a10.82,10.82,0,0,0,.13,1.86h-3.65a16.28,16.28,0,0,1-.09-1.88h0a3.17,3.17,0,0,1-3.18,2.14c-1.92,0-3.41-1.15-3.41-3.63v-7.89h3.89v6.76c0,1.08.32,1.6,1.1,1.6,1.12,0,1.36-1,1.36-1.86v-6.5h3.89v9.4" transform="translate(-245.75 -264.49)"/><path class="cls-1" d="M354.93,312.11a31.19,31.19,0,0,0-.13-3.26h3.65a16.24,16.24,0,0,1,.09,1.88h0a2.89,2.89,0,0,1,2.87-2.14,2.94,2.94,0,0,1,.65.07V312a4.71,4.71,0,0,0-1.17-.13c-1.25,0-2.12,1.1-2.12,2.59v5.6h-3.89v-8" transform="translate(-245.75 -264.49)"/><path class="cls-1" d="M366.69,315.54c.11,1.82,1.36,2.36,2.81,2.36a9.17,9.17,0,0,0,3.28-.89l.09,2.7a13.76,13.76,0,0,1-3.93.65c-4.56,0-5.88-3-5.88-5.94,0-3.09,1.84-5.83,5.23-5.83s5.19,2.79,5.19,5.85v1.1Zm3.24-2v-.33c0-1.51-.41-2.22-1.58-2.22s-1.75,1-1.75,2.55h3.33" transform="translate(-245.75 -264.49)"/><path class="cls-1" d="M375.36,311.14a20.72,20.72,0,0,0-.13-2.29h3.65a16.25,16.25,0,0,1,.09,1.88h0a3.17,3.17,0,0,1,3.18-2.14c1.92,0,3.41,1.15,3.41,3.63v7.89h-3.89v-6.76c0-1.08-.32-1.6-1.06-1.6-1,0-1.4,1-1.4,2.18v6.18h-3.89v-9" transform="translate(-245.75 -264.49)"/><path class="cls-1" d="M387,308.85h1.92v-2.38l3.89-1.21v3.59H395v2.64h-2.18v4.8a1.21,1.21,0,0,0,1.28,1.36,1.91,1.91,0,0,0,.91-.17l.11,2.64a12.71,12.71,0,0,1-2.57.26c-2.14,0-3.61-1.21-3.61-3.31v-5.57H387v-2.64" transform="translate(-245.75 -264.49)"/><path class="cls-1" d="M397,303.9h3.89v3.24H397Zm0,4.95h3.89V320.1H397Z" transform="translate(-245.75 -264.49)"/><path class="cls-1" d="M413.08,317.62c0,.91.06,1.82.13,2.49h-3.46c0-.52-.13-1-.13-1.56-1.12,1.25-2,1.82-3.37,1.82a3.34,3.34,0,0,1-3.41-3.59c0-2.51,1.88-3.85,5.79-3.85h1v-.35c0-.71-.58-1.53-2.12-1.53a6.41,6.41,0,0,0-3.24,1.06l-.13-2.79a11.9,11.9,0,0,1,4.21-.73c4,0,4.73,1.86,4.73,4.17Zm-3.46-3h-.46c-1.73,0-2.87.54-2.87,1.86a1.21,1.21,0,0,0,1.34,1.38c1.79,0,2-1.81,2-2.87v-.37" transform="translate(-245.75 -264.49)"/><path class="cls-1" d="M415.24,311.14a21.51,21.51,0,0,0-.13-2.29h3.65a16.21,16.21,0,0,1,.09,1.88h0a3.17,3.17,0,0,1,3.18-2.14c1.92,0,3.41,1.15,3.41,3.63v7.89h-3.89v-6.76c0-1.08-.32-1.6-1.06-1.6-1,0-1.41,1-1.41,2.18v6.18h-3.89v-9" transform="translate(-245.75 -264.49)"/><path class="cls-1" d="M428.29,305h1.34v9.51c0,2.27.43,4.47,3.13,4.47s3.13-2.44,3.13-4.47V305h1.34v9.53c0,3-1,5.7-4.47,5.7s-4.47-2.46-4.47-5.7V305" transform="translate(-245.75 -264.49)"/><path class="cls-1" d="M440.43,312.5c0-1.14-.06-2.27-.09-3.41h1.17c0,.5.06.82.09,1.62h0a3,3,0,0,1,2.81-1.77c3,0,3,3,3,3.78v7.39h-1.25v-7.43c0-.75,0-2.57-2.05-2.57-1.53,0-2.5,1.45-2.5,3.16v6.85h-1.25V312.5" transform="translate(-245.75 -264.49)"/><path class="cls-1" d="M450.42,304.7h1.51v1.94h-1.51Zm.13,4.39h1.25v11h-1.25Z" transform="translate(-245.75 -264.49)"/><polyline class="cls-1" points="207.87 44.59 209.21 44.59 211.82 54.19 211.86 54.19 214.56 44.59 215.82 44.59 212.6 55.61 211.09 55.61 207.87 44.59"/><path class="cls-1" d="M464,315c0,4.08,2.61,4.08,3.11,4.08a4,4,0,0,0,2.37-.91l.06,1.45a4.92,4.92,0,0,1-2.57.63c-4.32,0-4.32-4.56-4.32-5.66,0-4.15,2.05-5.66,3.91-5.66,3.2,0,3.52,3.39,3.52,6.07Zm4.75-1.17c0-2.92-1.23-3.74-2.25-3.74-1.71,0-2.51,2.31-2.51,3.74h4.75" transform="translate(-245.75 -264.49)"/><path class="cls-1" d="M472.48,312.5c0-1.14-.06-2.27-.09-3.41h1.17c0,.65.06,1.3.09,1.75h0a2.91,2.91,0,0,1,2.94-1.9v1.34c-2,0-2.9.87-2.9,2.9v6.94h-1.25V312.5" transform="translate(-245.75 -264.49)"/><path class="cls-1" d="M483,310.55a5,5,0,0,0-1.88-.45,1.77,1.77,0,0,0-1.88,1.75c0,1,.39,1.23,1.88,2.05s2.68,1.38,2.68,3.15a3.07,3.07,0,0,1-3.26,3.2,7.22,7.22,0,0,1-2.79-.52l.17-1.4a5.18,5.18,0,0,0,2.51.76,2,2,0,0,0,2-1.9c0-1.06-.67-1.49-2-2.14-1.86-.93-2.59-1.51-2.59-3.07a3.08,3.08,0,0,1,3.24-3,7.81,7.81,0,0,1,2,.32l-.17,1.3" transform="translate(-245.75 -264.49)"/><path class="cls-1" d="M486.07,304.7h1.51v1.94h-1.51Zm.13,4.39h1.25v11H486.2Z" transform="translate(-245.75 -264.49)"/><path class="cls-1" d="M492.31,306.49v2.59h2.24v1.17h-2.24v7.17c0,.89.15,1.67,1.21,1.67a2,2,0,0,0,1-.24v1.25a5.11,5.11,0,0,1-1.45.15c-1.62,0-2.05-1.25-2.05-2.49v-7.52h-1.64v-1.17h1.64v-2.2l1.25-.39" transform="translate(-245.75 -264.49)"/><path class="cls-1" d="M499.67,318.24h0l2.46-9.16h1.25l-3.61,13.07c-.41,1.49-.76,2.74-2.51,2.74a2.62,2.62,0,0,1-.84-.13l.06-1.27a1.76,1.76,0,0,0,.88.24c.61,0,.93-.58,1.13-1.27l.56-2.1-3.24-11.28h1.34l2.46,9.16" transform="translate(-245.75 -264.49)"/><path class="cls-1" d="M320,286.23h1.34v9.51c0,2.27.43,4.47,3.13,4.47s3.13-2.44,3.13-4.47v-9.51h1.34v9.53c0,3-1,5.7-4.47,5.7S320,299,320,295.75v-9.53" transform="translate(-245.75 -264.49)"/><path class="cls-1" d="M332.15,293.7c0-1.14-.07-2.27-.09-3.41h1.17c0,.5.06.82.09,1.62h0a3,3,0,0,1,2.81-1.77c3,0,3,3,3,3.78v7.39H338v-7.43c0-.76,0-2.57-2.05-2.57-1.53,0-2.51,1.45-2.51,3.15v6.85h-1.25V293.7" transform="translate(-245.75 -264.49)"/><path class="cls-1" d="M342.13,285.9h1.51v1.94h-1.51Zm.13,4.39h1.25v11h-1.25Z" transform="translate(-245.75 -264.49)"/><polyline class="cls-1" points="99.58 25.8 100.92 25.8 103.53 35.39 103.58 35.39 106.28 25.8 107.53 25.8 104.31 36.82 102.8 36.82 99.58 25.8"/><path class="cls-1" d="M355.74,296.21c0,4.08,2.62,4.08,3.11,4.08a4,4,0,0,0,2.38-.91l.06,1.45a4.94,4.94,0,0,1-2.57.63c-4.32,0-4.32-4.56-4.32-5.66,0-4.15,2.05-5.66,3.91-5.66,3.2,0,3.52,3.39,3.52,6.07Zm4.75-1.17c0-2.92-1.23-3.74-2.25-3.74-1.71,0-2.51,2.31-2.51,3.74h4.75" transform="translate(-245.75 -264.49)"/><path class="cls-1" d="M364.19,293.7c0-1.14-.07-2.27-.09-3.41h1.17c0,.65.06,1.3.09,1.75h0a2.9,2.9,0,0,1,2.94-1.9v1.34c-2,0-2.89.86-2.89,2.89v6.94h-1.25V293.7" transform="translate(-245.75 -264.49)"/><path class="cls-1" d="M374.75,291.76a5,5,0,0,0-1.88-.45,1.77,1.77,0,0,0-1.88,1.75c0,1,.39,1.23,1.88,2.05s2.68,1.38,2.68,3.15a3.07,3.07,0,0,1-3.26,3.2,7.24,7.24,0,0,1-2.79-.52l.17-1.41a5.2,5.2,0,0,0,2.51.76,2,2,0,0,0,2-1.9c0-1.06-.67-1.49-2-2.14-1.86-.93-2.59-1.51-2.59-3.07a3.09,3.09,0,0,1,3.24-3,7.77,7.77,0,0,1,2,.32l-.17,1.3" transform="translate(-245.75 -264.49)"/><path class="cls-1" d="M377.78,285.9h1.51v1.94h-1.51Zm.13,4.39h1.25v11h-1.25Z" transform="translate(-245.75 -264.49)"/><path class="cls-1" d="M384,287.69v2.59h2.25v1.17H384v7.17c0,.88.15,1.66,1.21,1.66a2,2,0,0,0,1-.24v1.25a5.13,5.13,0,0,1-1.45.15c-1.62,0-2.05-1.25-2.05-2.48v-7.52h-1.64v-1.17h1.64v-2.21l1.25-.39" transform="translate(-245.75 -264.49)"/><path class="cls-1" d="M389,296.21c0,4.08,2.61,4.08,3.11,4.08a4,4,0,0,0,2.37-.91l.07,1.45a4.94,4.94,0,0,1-2.57.63c-4.32,0-4.32-4.56-4.32-5.66,0-4.15,2.05-5.66,3.91-5.66,3.2,0,3.52,3.39,3.52,6.07Zm4.75-1.17c0-2.92-1.23-3.74-2.25-3.74-1.71,0-2.51,2.31-2.51,3.74Zm-.22-9.46-2.08,3.07h-1.08l1.64-3.07h1.51" transform="translate(-245.75 -264.49)"/><polyline class="cls-1" points="151.56 21.74 155.63 21.74 155.63 33.75 160.6 33.75 160.6 36.82 151.56 36.82 151.56 21.74"/><path class="cls-1" d="M417.69,298.82c0,.91.06,1.81.13,2.48h-3.46c0-.52-.13-1-.13-1.55a4.22,4.22,0,0,1-3.37,1.81,3.34,3.34,0,0,1-3.41-3.59c0-2.51,1.88-3.85,5.79-3.85h1v-.34c0-.71-.58-1.54-2.12-1.54a6.43,6.43,0,0,0-3.24,1.06l-.13-2.79a11.91,11.91,0,0,1,4.21-.73c4,0,4.73,1.86,4.73,4.17Zm-3.46-3h-.45c-1.73,0-2.87.54-2.87,1.86a1.21,1.21,0,0,0,1.34,1.38c1.79,0,2-1.81,2-2.87v-.37" transform="translate(-245.75 -264.49)"/><path class="cls-1" d="M430.09,299.45a10.58,10.58,0,0,0,.13,1.86h-3.65a16.76,16.76,0,0,1-.08-1.88h0a3.17,3.17,0,0,1-3.18,2.14c-1.92,0-3.41-1.14-3.41-3.63V290h3.89v6.76c0,1.08.33,1.6,1.1,1.6,1.12,0,1.36-1,1.36-1.86V290h3.89v9.4" transform="translate(-245.75 -264.49)"/><path class="cls-1" d="M432.25,293.31a31.2,31.2,0,0,0-.13-3.26h3.65a16.25,16.25,0,0,1,.09,1.88h0a2.89,2.89,0,0,1,2.87-2.14,3,3,0,0,1,.65.06v3.39a4.72,4.72,0,0,0-1.17-.13c-1.25,0-2.12,1.1-2.12,2.59v5.6h-3.89v-8" transform="translate(-245.75 -264.49)"/><path class="cls-1" d="M444,296.75c.11,1.81,1.36,2.36,2.81,2.36a9.13,9.13,0,0,0,3.29-.89l.09,2.7a13.72,13.72,0,0,1-3.93.65c-4.56,0-5.87-3-5.87-5.94,0-3.09,1.84-5.83,5.23-5.83s5.19,2.79,5.19,5.86v1.1Zm3.24-2v-.32c0-1.51-.41-2.23-1.58-2.23s-1.75,1-1.75,2.55h3.33" transform="translate(-245.75 -264.49)"/><path class="cls-1" d="M452.67,292.34a21.06,21.06,0,0,0-.13-2.29h3.65a15.84,15.84,0,0,1,.09,1.88h0a3.17,3.17,0,0,1,3.18-2.14c1.92,0,3.41,1.14,3.41,3.63v7.88H459v-6.76c0-1.08-.33-1.6-1.06-1.6-1,0-1.4,1-1.4,2.18v6.18h-3.89v-9" transform="translate(-245.75 -264.49)"/><path class="cls-1" d="M464.27,290h1.92v-2.37l3.89-1.21V290h2.18v2.64h-2.18v4.8a1.22,1.22,0,0,0,1.28,1.36,1.93,1.93,0,0,0,.91-.17l.11,2.63a12.73,12.73,0,0,1-2.57.26c-2.14,0-3.61-1.21-3.61-3.31v-5.57h-1.92V290" transform="translate(-245.75 -264.49)"/><path class="cls-1" d="M474.32,285.1h3.89v3.24h-3.89Zm0,4.95h3.89v11.26h-3.89Z" transform="translate(-245.75 -264.49)"/><path class="cls-1" d="M483.89,296.75c.11,1.81,1.36,2.36,2.81,2.36a9.14,9.14,0,0,0,3.29-.89l.09,2.7a13.73,13.73,0,0,1-3.93.65c-4.56,0-5.88-3-5.88-5.94,0-3.09,1.84-5.83,5.23-5.83s5.19,2.79,5.19,5.86v1.1Zm3.24-2v-.32c0-1.51-.41-2.23-1.58-2.23s-1.75,1-1.75,2.55h3.33" transform="translate(-245.75 -264.49)"/><path class="cls-1" d="M492.55,292.34a20.52,20.52,0,0,0-.13-2.29h3.65a15.87,15.87,0,0,1,.09,1.88h0a3.17,3.17,0,0,1,3.18-2.14c1.92,0,3.42,1.14,3.42,3.63v7.88h-3.89v-6.76c0-1.08-.32-1.6-1.06-1.6-1,0-1.4,1-1.4,2.18v6.18h-3.89v-9" transform="translate(-245.75 -264.49)"/><path class="cls-1" d="M505,292.34a20.52,20.52,0,0,0-.13-2.29h3.65a15.83,15.83,0,0,1,.09,1.88h0a3.17,3.17,0,0,1,3.18-2.14c1.92,0,3.41,1.14,3.41,3.63v7.88h-3.89v-6.76c0-1.08-.32-1.6-1.06-1.6-1,0-1.4,1-1.4,2.18v6.18H505v-9" transform="translate(-245.75 -264.49)"/><path class="cls-1" d="M520.71,296.75c.11,1.81,1.36,2.36,2.81,2.36a9.14,9.14,0,0,0,3.28-.89l.09,2.7a13.72,13.72,0,0,1-3.93.65c-4.56,0-5.88-3-5.88-5.94,0-3.09,1.84-5.83,5.23-5.83s5.19,2.79,5.19,5.86v1.1Zm3.24-2v-.32c0-1.51-.41-2.23-1.58-2.23s-1.75,1-1.75,2.55h3.33" transform="translate(-245.75 -264.49)"/><path class="cls-2" d="M285.21,314.95a14.59,14.59,0,0,0-12.11,6.46,25.11,25.11,0,0,0,12.11,8.13,25.1,25.1,0,0,0,12.1-8.13,14.58,14.58,0,0,0-12.1-6.46" transform="translate(-245.75 -264.49)"/><path class="cls-1" d="M285.21,284.21a102.49,102.49,0,0,0-19.72,2V297.3c0,3.36.47,14.38,6.71,22.93a16,16,0,0,1,12.1-6.67c.62-1.16,1.28-2.47,1.93-3.88-1.91-.46-1.91-2.41-.78-3.63a6.34,6.34,0,0,1,2.87-1.47c.23-.63.45-1.28.65-1.93a18,18,0,0,0-2.79,1.07c-1.87.95-1,3-3.41,2.74s-2.48-2.39-1.27-3.71,4.15-2,7.47-2.12a2,2,0,0,1,.39-2.47,3.54,3.54,0,0,1,1-.7l.11-.58a11.76,11.76,0,0,0-1.11.48c-1.61.81-.87,2.54-2.93,2.35s-2.14-2.06-1.09-3.19c.87-.94,3-1.58,5.48-1.77a31.23,31.23,0,0,0,.29-4.23l.56-.17a12.78,12.78,0,0,1,.08,4.35,17.53,17.53,0,0,1,5.71.72,23.6,23.6,0,0,0-5.94,1.1l-.07.49a18.12,18.12,0,0,1,10,0,22.92,22.92,0,0,0-8.1,1.94c-.91.46-1.07,1.21-1.4,1.74a18.16,18.16,0,0,1,3.63.73,25.28,25.28,0,0,0-5.25.81q-.24,1-.51,2a21.59,21.59,0,0,1,9.71.53,26.77,26.77,0,0,0-9.42,2.26c-1.29.65-1.28,1.8-1.94,2.39-.51,1.42-1.08,2.83-1.69,4.18a16,16,0,0,1,11.72,6.64c6.25-8.54,6.71-19.57,6.71-22.93V286.23A102.49,102.49,0,0,0,285.21,284.21Zm5.53,5.78c-1.47.74-.79,2.32-2.67,2.15s-1.95-1.88-1-2.91c1.49-1.62,7.09-2.28,11.05-1a20.92,20.92,0,0,0-7.39,1.77" transform="translate(-245.75 -264.49)"/><rect class="cls-3" width="301.46" height="84.89"/></svg>